999
Cabinet Planner DXF Export
999
Version: 5.32.0
999
Schema: dxf-ac1015-v2
999
Generated: <normalized>
999
Sheet: 1  Material: plywood-17  Thickness: 17mm
999
Parts: 11
0
SECTION
2
HEADER
9
$ACADVER
1
AC1015
9
$DWGCODEPAGE
3
ANSI_1252
9
$INSUNITS
70
4
9
$MEASUREMENT
70
1
0
ENDSEC
0
SECTION
2
CLASSES
0
ENDSEC
0
SECTION
2
TABLES
0
TABLE
2
VPORT
70
1
0
VPORT
2
*Active
70
0
0
ENDTAB
0
TABLE
2
LTYPE
70
1
0
LTYPE
2
CONTINUOUS
70
0
3
Solid line
72
65
73
0
40
0.0
0
ENDTAB
0
TABLE
2
LAYER
70
8
0
LAYER
2
SHEET
70
0
62
7
6
CONTINUOUS
0
LAYER
2
MAT_PLYWOOD-17
70
0
62
3
6
CONTINUOUS
0
LAYER
2
LABELS
70
0
62
5
6
CONTINUOUS
0
LAYER
2
PARTS
70
0
62
3
6
CONTINUOUS
0
LAYER
2
GRAIN_CONFLICT
70
0
62
1
6
CONTINUOUS
0
LAYER
2
ROTATION_LOCKED
70
0
62
6
6
CONTINUOUS
0
LAYER
2
EDGE_BANDED
70
0
62
4
6
CONTINUOUS
0
LAYER
2
DIMENSIONS
70
0
62
2
6
CONTINUOUS
0
ENDTAB
0
TABLE
2
STYLE
70
1
0
STYLE
2
Standard
70
0
40
0.0
41
1.0
50
0.0
71
0
42
0.2
3
arial.shx
4

0
ENDTAB
0
TABLE
2
VIEW
70
0
0
ENDTAB
0
TABLE
2
UCS
70
0
0
ENDTAB
0
TABLE
2
APPID
70
1
0
APPID
2
ACAD
70
0
0
ENDTAB
0
TABLE
2
DIMSTYLE
70
1
0
DIMSTYLE
2
Standard
70
0
3

4

40
1.0
41
3.0
42
1.0
43
9.0
44
1.0
140
3.0
147
1.0
73
0
74
0
77
0
78
0
170
0
171
2
172
0
173
0
174
0
175
0
176
0
177
0
178
0
0
ENDTAB
0
TABLE
2
BLOCK_RECORD
70
2
0
BLOCK_RECORD
2
*Model_Space
0
BLOCK_RECORD
2
*Paper_Space
0
ENDTAB
0
ENDSEC
0
SECTION
2
BLOCKS
0
BLOCK
8
0
2
*Model_Space
70
0
10
0.0
20
0.0
30
0.0
3
*Model_Space
1

0
ENDBLK
0
BLOCK
8
0
2
*Paper_Space
70
0
10
0.0
20
0.0
30
0.0
3
*Paper_Space
1

0
ENDBLK
0
ENDSEC
0
SECTION
2
ENTITIES
0
LWPOLYLINE
8
SHEET
90
4
70
1
10
0
20
0
10
1220
20
0
10
1220
20
2440
10
0
20
2440
0
LWPOLYLINE
8
MAT_PLYWOOD-17
90
4
70
1
10
0
20
0
10
100
20
0
10
100
20
900
10
0
20
900
0
LWPOLYLINE
8
EDGE_BANDED
90
4
70
1
10
0
20
0
10
100
20
0
10
100
20
900
10
0
20
900
0
TEXT
8
LABELS
10
50
20
450
30
0
40
20
1
P11 100x900
72
1
73
2
11
50
21
450
31
0
0
DIMENSION
8
DIMENSIONS
2
*Model_Space
10
100
20
-8
30
0.0
11
50
21
-11
31
0.0
70
0
1

3
Standard
100
AcDbAlignedDimension
13
0
23
0
33
0.0
14
100
24
0
34
0.0
50
0.0
0
DIMENSION
8
DIMENSIONS
2
*Model_Space
10
108
20
900
30
0.0
11
111
21
450
31
0.0
70
1
1

3
Standard
100
AcDbAlignedDimension
13
100
23
0
33
0.0
14
100
24
900
34
0.0
50
90.0
0
LWPOLYLINE
8
MAT_PLYWOOD-17
90
4
70
1
10
106
20
0
10
666
20
0
10
666
20
866
10
106
20
866
0
LWPOLYLINE
8
EDGE_BANDED
90
4
70
1
10
106
20
0
10
666
20
0
10
666
20
866
10
106
20
866
0
TEXT
8
LABELS
10
386
20
433
30
0
40
20
1
P02 560x866
72
1
73
2
11
386
21
433
31
0
0
DIMENSION
8
DIMENSIONS
2
*Model_Space
10
666
20
-8
30
0.0
11
386
21
-11
31
0.0
70
0
1

3
Standard
100
AcDbAlignedDimension
13
106
23
0
33
0.0
14
666
24
0
34
0.0
50
0.0
0
DIMENSION
8
DIMENSIONS
2
*Model_Space
10
674
20
866
30
0.0
11
677
21
433
31
0.0
70
1
1

3
Standard
100
AcDbAlignedDimension
13
666
23
0
33
0.0
14
666
24
866
34
0.0
50
90.0
0
LWPOLYLINE
8
MAT_PLYWOOD-17
90
4
70
1
10
106
20
872
10
666
20
872
10
666
20
1738
10
106
20
1738
0
LWPOLYLINE
8
EDGE_BANDED
90
4
70
1
10
106
20
872
10
666
20
872
10
666
20
1738
10
106
20
1738
0
TEXT
8
LABELS
10
386
20
1305
30
0
40
20
1
P03 560x866
72
1
73
2
11
386
21
1305
31
0
0
DIMENSION
8
DIMENSIONS
2
*Model_Space
10
666
20
864
30
0.0
11
386
21
861
31
0.0
70
0
1

3
Standard
100
AcDbAlignedDimension
13
106
23
872
33
0.0
14
666
24
872
34
0.0
50
0.0
0
DIMENSION
8
DIMENSIONS
2
*Model_Space
10
674
20
1738
30
0.0
11
677
21
1305
31
0.0
70
1
1

3
Standard
100
AcDbAlignedDimension
13
666
23
872
33
0.0
14
666
24
1738
34
0.0
50
90.0
0
LWPOLYLINE
8
MAT_PLYWOOD-17
90
4
70
1
10
0
20
1744
10
866
20
1744
10
866
20
1924
10
0
20
1924
0
LWPOLYLINE
8
EDGE_BANDED
90
4
70
1
10
0
20
1744
10
866
20
1744
10
866
20
1924
10
0
20
1924
0
TEXT
8
LABELS
10
433
20
1834
30
0
40
20
1
P06 866x180
72
1
73
2
11
433
21
1834
31
0
0
DIMENSION
8
DIMENSIONS
2
*Model_Space
10
866
20
1736
30
0.0
11
433
21
1733
31
0.0
70
0
1

3
Standard
100
AcDbAlignedDimension
13
0
23
1744
33
0.0
14
866
24
1744
34
0.0
50
0.0
0
DIMENSION
8
DIMENSIONS
2
*Model_Space
10
874
20
1924
30
0.0
11
877
21
1834
31
0.0
70
1
1

3
Standard
100
AcDbAlignedDimension
13
866
23
1744
33
0.0
14
866
24
1924
34
0.0
50
90.0
0
LWPOLYLINE
8
MAT_PLYWOOD-17
90
4
70
1
10
672
20
0
10
1212
20
0
10
1212
20
864
10
672
20
864
0
LWPOLYLINE
8
EDGE_BANDED
90
4
70
1
10
672
20
0
10
1212
20
0
10
1212
20
864
10
672
20
864
0
TEXT
8
LABELS
10
942
20
432
30
0
40
20
1
P04 540x864
72
1
73
2
11
942
21
432
31
0
0
DIMENSION
8
DIMENSIONS
2
*Model_Space
10
1212
20
-8
30
0.0
11
942
21
-11
31
0.0
70
0
1

3
Standard
100
AcDbAlignedDimension
13
672
23
0
33
0.0
14
1212
24
0
34
0.0
50
0.0
0
DIMENSION
8
DIMENSIONS
2
*Model_Space
10
1220
20
864
30
0.0
11
1223
21
432
31
0.0
70
1
1

3
Standard
100
AcDbAlignedDimension
13
1212
23
0
33
0.0
14
1212
24
864
34
0.0
50
90.0
0
LWPOLYLINE
8
MAT_PLYWOOD-17
90
4
70
1
10
672
20
870
10
1212
20
870
10
1212
20
1734
10
672
20
1734
0
LWPOLYLINE
8
EDGE_BANDED
90
4
70
1
10
672
20
870
10
1212
20
870
10
1212
20
1734
10
672
20
1734
0
TEXT
8
LABELS
10
942
20
1302
30
0
40
20
1
P04 540x864
72
1
73
2
11
942
21
1302
31
0
0
DIMENSION
8
DIMENSIONS
2
*Model_Space
10
1212
20
862
30
0.0
11
942
21
859
31
0.0
70
0
1

3
Standard
100
AcDbAlignedDimension
13
672
23
870
33
0.0
14
1212
24
870
34
0.0
50
0.0
0
DIMENSION
8
DIMENSIONS
2
*Model_Space
10
1220
20
1734
30
0.0
11
1223
21
1302
31
0.0
70
1
1

3
Standard
100
AcDbAlignedDimension
13
1212
23
870
33
0.0
14
1212
24
1734
34
0.0
50
90.0
0
LWPOLYLINE
8
GRAIN_CONFLICT
90
4
70
1
10
0
20
1930
10
806
20
1930
10
806
20
2080
10
0
20
2080
0
LWPOLYLINE
8
EDGE_BANDED
90
4
70
1
10
0
20
1930
10
806
20
1930
10
806
20
2080
10
0
20
2080
0
TEXT
8
LABELS
10
403
20
2005
30
0
40
20
1
P08 806x150
72
1
73
2
11
403
21
2005
31
0
0
DIMENSION
8
DIMENSIONS
2
*Model_Space
10
806
20
1922
30
0.0
11
403
21
1919
31
0.0
70
0
1

3
Standard
100
AcDbAlignedDimension
13
0
23
1930
33
0.0
14
806
24
1930
34
0.0
50
0.0
0
DIMENSION
8
DIMENSIONS
2
*Model_Space
10
814
20
2080
30
0.0
11
817
21
2005
31
0.0
70
1
1

3
Standard
100
AcDbAlignedDimension
13
806
23
1930
33
0.0
14
806
24
2080
34
0.0
50
90.0
0
LWPOLYLINE
8
GRAIN_CONFLICT
90
4
70
1
10
0
20
2086
10
806
20
2086
10
806
20
2236
10
0
20
2236
0
LWPOLYLINE
8
EDGE_BANDED
90
4
70
1
10
0
20
2086
10
806
20
2086
10
806
20
2236
10
0
20
2236
0
TEXT
8
LABELS
10
403
20
2161
30
0
40
20
1
P08 806x150
72
1
73
2
11
403
21
2161
31
0
0
DIMENSION
8
DIMENSIONS
2
*Model_Space
10
806
20
2078
30
0.0
11
403
21
2075
31
0.0
70
0
1

3
Standard
100
AcDbAlignedDimension
13
0
23
2086
33
0.0
14
806
24
2086
34
0.0
50
0.0
0
DIMENSION
8
DIMENSIONS
2
*Model_Space
10
814
20
2236
30
0.0
11
817
21
2161
31
0.0
70
1
1

3
Standard
100
AcDbAlignedDimension
13
806
23
2086
33
0.0
14
806
24
2236
34
0.0
50
90.0
0
LWPOLYLINE
8
MAT_PLYWOOD-17
90
4
70
1
10
0
20
906
10
100
20
906
10
100
20
1449
10
0
20
1449
0
LWPOLYLINE
8
EDGE_BANDED
90
4
70
1
10
0
20
906
10
100
20
906
10
100
20
1449
10
0
20
1449
0
TEXT
8
LABELS
10
50
20
1177.5
30
0
40
20
1
P12 100x543
72
1
73
2
11
50
21
1177.5
31
0
0
DIMENSION
8
DIMENSIONS
2
*Model_Space
10
100
20
898
30
0.0
11
50
21
895
31
0.0
70
0
1

3
Standard
100
AcDbAlignedDimension
13
0
23
906
33
0.0
14
100
24
906
34
0.0
50
0.0
0
DIMENSION
8
DIMENSIONS
2
*Model_Space
10
108
20
1449
30
0.0
11
111
21
1177.5
31
0.0
70
1
1

3
Standard
100
AcDbAlignedDimension
13
100
23
906
33
0.0
14
100
24
1449
34
0.0
50
90.0
0
LWPOLYLINE
8
MAT_PLYWOOD-17
90
4
70
1
10
872
20
1740
10
972
20
1740
10
972
20
2283
10
872
20
2283
0
LWPOLYLINE
8
EDGE_BANDED
90
4
70
1
10
872
20
1740
10
972
20
1740
10
972
20
2283
10
872
20
2283
0
TEXT
8
LABELS
10
922
20
2011.5
30
0
40
20
1
P12 100x543
72
1
73
2
11
922
21
2011.5
31
0
0
DIMENSION
8
DIMENSIONS
2
*Model_Space
10
972
20
1732
30
0.0
11
922
21
1729
31
0.0
70
0
1

3
Standard
100
AcDbAlignedDimension
13
872
23
1740
33
0.0
14
972
24
1740
34
0.0
50
0.0
0
DIMENSION
8
DIMENSIONS
2
*Model_Space
10
980
20
2283
30
0.0
11
983
21
2011.5
31
0.0
70
1
1

3
Standard
100
AcDbAlignedDimension
13
972
23
1740
33
0.0
14
972
24
2283
34
0.0
50
90.0
0
LWPOLYLINE
8
MAT_PLYWOOD-17
90
4
70
1
10
978
20
1740
10
1128
20
1740
10
1128
20
2240
10
978
20
2240
0
LWPOLYLINE
8
EDGE_BANDED
90
4
70
1
10
978
20
1740
10
1128
20
1740
10
1128
20
2240
10
978
20
2240
0
TEXT
8
LABELS
10
1053
20
1990
30
0
40
20
1
P07 150x500
72
1
73
2
11
1053
21
1990
31
0
0
DIMENSION
8
DIMENSIONS
2
*Model_Space
10
1128
20
1732
30
0.0
11
1053
21
1729
31
0.0
70
0
1

3
Standard
100
AcDbAlignedDimension
13
978
23
1740
33
0.0
14
1128
24
1740
34
0.0
50
0.0
0
DIMENSION
8
DIMENSIONS
2
*Model_Space
10
1136
20
2240
30
0.0
11
1139
21
1990
31
0.0
70
1
1

3
Standard
100
AcDbAlignedDimension
13
1128
23
1740
33
0.0
14
1128
24
2240
34
0.0
50
90.0
0
ENDSEC
0
SECTION
2
OBJECTS
0
DICTIONARY
3
ACAD_GROUP
350
0
0
ENDSEC
0
EOF